<svg xmlns="http://www.w3.org/2000/svg" viewBox="0 0 341 109.49"><defs><style>.cls-2{fill:#9d0085}</style></defs><g id="Calque_2" data-name="Calque 2"><g id="Calque_1-2" data-name="Calque 1"><path d="M.16 86.59V73.46H3a18.49 18.49 0 014 .28 5.38 5.38 0 012 1A5.49 5.49 0 0110.73 77a8.22 8.22 0 010 6.13A5.58 5.58 0 019 85.36a5.38 5.38 0 01-2 1 15.1 15.1 0 01-3.42.28H.16zm2.14-1.93h1.79a9.79 9.79 0 002.23-.19 3.15 3.15 0 001.28-.67 3.85 3.85 0 001.12-1.58 6.86 6.86 0 000-4.43 4 4 0 00-1.12-1.56 3.2 3.2 0 00-1.33-.66 11 11 0 00-2.43-.2H2.3zm19.4-2.03h-6.8a2.91 2.91 0 00.71 1.86 2.2 2.2 0 001.7.67 2.88 2.88 0 001.57-.4A3.13 3.13 0 0020 83.49l1.64.91a5 5 0 01-1.77 1.92 4.92 4.92 0 01-2.49.62 4.31 4.31 0 01-3.28-1.24 5 5 0 010-6.62 4.3 4.3 0 013.21-1.29A4.31 4.31 0 0120.56 79a4.56 4.56 0 011.14 3.29zm-2-1.31a2.15 2.15 0 00-.7-1.4 2.48 2.48 0 00-1.6-.48 2.37 2.37 0 00-1.54.47 2.51 2.51 0 00-.86 1.41zm-3.6-4.52l1.7-2.44h2l-2.61 2.44zm10.53 10.31l-4.46-9h2.13l1.85 4.28c.06.13.13.33.22.59s.17.58.26.94c.06-.26.13-.51.21-.77a7 7 0 01.29-.76l1.87-4.3h2.1zm13.79-4.48h-6.8a2.85 2.85 0 00.7 1.86 2.2 2.2 0 001.7.67 2.88 2.88 0 001.57-.4 3.27 3.27 0 001.09-1.27l1.65.91a5 5 0 01-1.78 1.92 4.89 4.89 0 01-2.48.62 4.36 4.36 0 01-3.26-1.24 4.59 4.59 0 01-1.21-3.33 4.47 4.47 0 011.25-3.29 4.27 4.27 0 013.22-1.29 4.27 4.27 0 013.2 1.21 4.51 4.51 0 011.15 3.29zm-2-1.31a2.06 2.06 0 00-.7-1.4 2.48 2.48 0 00-1.6-.48 2.37 2.37 0 00-1.54.47 2.54 2.54 0 00-.82 1.41zm4.02 5.27v-13.9h2v13.9zm4.01-4.24a4.46 4.46 0 011.37-3.24 4.63 4.63 0 011.51-1 4.94 4.94 0 013.59 0 4.85 4.85 0 012.55 2.49 4.49 4.49 0 01.35 1.73 4.66 4.66 0 01-.35 1.77 4.32 4.32 0 01-1 1.46 4.74 4.74 0 01-6.64 0 4.47 4.47 0 01-1.37-3.25zm7.31 0a2.84 2.84 0 00-.76-2 2.53 2.53 0 00-3.57-.16c-.06 0-.11.11-.16.16a2.85 2.85 0 00-.77 2 2.81 2.81 0 00.77 2 2.44 2.44 0 001.86.82 2.5 2.5 0 001.87-.8 2.8 2.8 0 00.76-2zm4.05 8.25V78.09h1.94v1.39a2.51 2.51 0 011.09-1.25 3.62 3.62 0 011.79-.44A3.45 3.45 0 0165.38 79a4.89 4.89 0 011.06 3.29 5.12 5.12 0 01-1 3.38 3.51 3.51 0 01-2.84 1.23 3.26 3.26 0 01-2.81-1.45v5.15zm1.88-8.29a3.15 3.15 0 00.66 2.11 2.17 2.17 0 001.74.79 2.07 2.07 0 001.71-.73 3.89 3.89 0 000-4.2 2.44 2.44 0 00-3.45-.07l-.07.07a3.15 3.15 0 00-.59 2.03zm8.72 8.29V78.09h2v1.39a2.51 2.51 0 011.09-1.25 3.5 3.5 0 011.79-.44A3.43 3.43 0 0176 79a5 5 0 011 3.33 5.06 5.06 0 01-1 3.38 3.51 3.51 0 01-2.84 1.23 3.44 3.44 0 01-1.6-.36 3.34 3.34 0 01-1.21-1.09v5.11zm1.88-8.29a3.16 3.16 0 00.71 2.11 2.17 2.17 0 001.74.79 2.07 2.07 0 001.71-.73 3.89 3.89 0 000-4.2 2.37 2.37 0 00-3.35-.11l-.11.11a3.06 3.06 0 00-.7 2.03zm16.92.32H80.4a2.91 2.91 0 00.71 1.86 2.2 2.2 0 001.7.67 2.88 2.88 0 001.57-.4 3.27 3.27 0 001.09-1.27l1.65.91a5 5 0 01-1.78 1.92 4.92 4.92 0 01-2.49.62 4.32 4.32 0 01-3.25-1.24 4.59 4.59 0 01-1.21-3.33 4.47 4.47 0 011.25-3.29 4.79 4.79 0 016.42-.08 4.51 4.51 0 011.15 3.29zm-2-1.31a2.06 2.06 0 00-.7-1.4 2.48 2.48 0 00-1.6-.48 2.37 2.37 0 00-1.54.47 2.54 2.54 0 00-.82 1.41zm5.88 5.27h-2v-8.5H91v1.39a3.91 3.91 0 011.32-1.3 3.66 3.66 0 011.68-.41 3 3 0 011.65.42 2.61 2.61 0 011 1.27 4.19 4.19 0 011.43-1.28 3.55 3.55 0 011.72-.41 3.42 3.42 0 011.48.31 2.2 2.2 0 011 .91 1.94 1.94 0 01.24.66 5.76 5.76 0 01.08 1.1v5.84h-2v-4.37a4.67 4.67 0 00-.3-2.22 1.48 1.48 0 00-1.3-.55 1.82 1.82 0 00-1.64.74 4.91 4.91 0 00-.48 2.56v3.87h-2v-4.4a4.56 4.56 0 00-.35-2.22 1.43 1.43 0 00-1.32-.61 2.2 2.2 0 00-1 .27 2 2 0 00-.75.71 2.11 2.11 0 00-.25.73 12.09 12.09 0 00-.07 1.59zm22.25-3.96h-6.8a2.85 2.85 0 00.7 1.86 2.2 2.2 0 001.7.67 2.88 2.88 0 001.57-.4 3.29 3.29 0 001.1-1.27l1.64.91a5 5 0 01-1.78 1.92 4.89 4.89 0 01-2.48.62 4.36 4.36 0 01-3.26-1.24 4.59 4.59 0 01-1.21-3.33 4.47 4.47 0 011.25-3.29 4.78 4.78 0 016.42-.11 4.51 4.51 0 011.15 3.29zm-2-1.31a2.06 2.06 0 00-.7-1.4 2.48 2.48 0 00-1.6-.48 2.37 2.37 0 00-1.54.47 2.54 2.54 0 00-.82 1.41zm3.93 5.27v-8.5h1.83v1.39a3.69 3.69 0 011.38-1.28 4.58 4.58 0 013.54-.11 2.41 2.41 0 011 .9 2.18 2.18 0 01.32.81 8.87 8.87 0 01.1 1.63v5.16h-2v-4.37A4.17 4.17 0 00121 80a1.73 1.73 0 00-1.45-.55 3 3 0 00-1.22.25 2 2 0 00-.83.71 2.07 2.07 0 00-.31.79 11.21 11.21 0 00-.08 1.53v3.87zm11.19 0v-6.8H125v-1.7h1.49v-3.22h2v3.22H130v1.7h-1.49v6.8zM143 72.69h2v13.9h-2v-1.1a3.26 3.26 0 01-2.81 1.45 3.51 3.51 0 01-2.84-1.23 5.12 5.12 0 01-1-3.38 5 5 0 011-3.33 3.74 3.74 0 014.55-.81 2.57 2.57 0 011.1 1.29zm.05 9.62a3.12 3.12 0 00-.61-2 2.37 2.37 0 00-3.35-.11l-.11.11a3.25 3.25 0 00-.63 2.11 3.18 3.18 0 00.61 2.09 2.32 2.32 0 003.28.1l.15-.15a3.23 3.23 0 00.66-2.16zm12.7.32H149a2.77 2.77 0 00.71 1.86 2.19 2.19 0 001.69.67 2.88 2.88 0 001.57-.4 3.29 3.29 0 001.1-1.27l1.64.91a5 5 0 01-1.78 1.92 4.79 4.79 0 01-2.48.62 4.36 4.36 0 01-3.26-1.24 4.6 4.6 0 01-1.19-3.33 4.47 4.47 0 011.25-3.29 4.79 4.79 0 016.35-.08 4.51 4.51 0 011.15 3.29zm-2-1.31a2.06 2.06 0 00-.7-1.4 2.48 2.48 0 00-1.6-.48 2.37 2.37 0 00-1.54.47 2.54 2.54 0 00-.82 1.41zm2.96 3.73l1.61-.88a1.67 1.67 0 00.66 1 2.19 2.19 0 001.25.33 1.62 1.62 0 001-.3 1 1 0 00.37-.82c0-.46-.44-.86-1.33-1.18l-.69-.27a5.53 5.53 0 01-1.9-1.15 2 2 0 01-.55-1.42 2.23 2.23 0 01.9-1.85 4.18 4.18 0 014.05-.34 2.3 2.3 0 011 1l-1.38 1a1.4 1.4 0 00-.54-.64 1.6 1.6 0 00-.88-.24 1.36 1.36 0 00-.89.27.84.84 0 00-.34.7c0 .45.5.85 1.51 1.22l.73.27a4.23 4.23 0 011.71 1 2.16 2.16 0 01.5 1.46 2.42 2.42 0 01-.92 2 4.06 4.06 0 01-2.55.72 4.13 4.13 0 01-2.07-.46 3.19 3.19 0 01-1.25-1.42zm14.39 1.54V73.46h2.14v13.13zm4.95 0v-8.5h1.83v1.39a3.69 3.69 0 011.38-1.28 4.13 4.13 0 011.92-.41 3.87 3.87 0 011.61.3 2.36 2.36 0 011.05.9 2.18 2.18 0 01.32.81 8.87 8.87 0 01.1 1.63v5.16h-2v-4.37a4.18 4.18 0 00-.41-2.23 1.73 1.73 0 00-1.45-.55 3 3 0 00-1.22.25 2 2 0 00-.83.71 1.91 1.91 0 00-.3.79 9.82 9.82 0 00-.09 1.53v3.87zm16.79-13.9h1.95v13.9h-1.95v-1.1a3.29 3.29 0 01-2.84 1.45 3.51 3.51 0 01-2.84-1.23 5.12 5.12 0 01-1-3.38 5 5 0 011-3.33 3.74 3.74 0 014.55-.81 2.58 2.58 0 011.08 1.25zm0 9.62a3.12 3.12 0 00-.61-2 2.37 2.37 0 00-3.35-.11l-.11.11a3.25 3.25 0 00-.63 2.11 3.18 3.18 0 00.61 2.09 2.32 2.32 0 003.28.1l.15-.15a3.24 3.24 0 00.7-2.16zm6.43-4.22v4.79a2.53 2.53 0 00.51 1.78 2.85 2.85 0 003.32 0 2.53 2.53 0 00.51-1.78v-4.79h1.95v4.21a5.27 5.27 0 01-1 3.54 5 5 0 01-6.28 0 5.28 5.28 0 01-1-3.55v-4.2zm7.87 6.96l1.61-.88a1.65 1.65 0 00.67 1 2.16 2.16 0 001.24.33 1.62 1.62 0 001-.3 1 1 0 00.37-.82c0-.46-.44-.86-1.33-1.18l-.7-.3a5.53 5.53 0 01-1.9-1.15 2 2 0 01-.55-1.42 2.23 2.23 0 01.9-1.85 4.17 4.17 0 014-.34 2.3 2.3 0 011 1l-1.38 1a1.21 1.21 0 00-.54-.64 1.6 1.6 0 00-.88-.24 1.36 1.36 0 00-.89.27.84.84 0 00-.34.7c0 .45.5.85 1.51 1.22l.73.27a4.33 4.33 0 011.69 1.06 2.16 2.16 0 01.5 1.46 2.42 2.42 0 01-.92 2 4.06 4.06 0 01-2.55.72 4.13 4.13 0 01-2.07-.46 3.2 3.2 0 01-1.17-1.45zm9.18 1.54v-6.8h-1.49v-1.7h1.49v-3.22h2v3.22h1.49v1.7h-1.49v6.8zm6.97-7.15a2.75 2.75 0 01.83-1.24 2 2 0 011.28-.41 3.15 3.15 0 01.81.1 4.4 4.4 0 01.79.29l-.7 1.65a1.88 1.88 0 00-.55-.27 2.82 2.82 0 00-.65-.08 1.46 1.46 0 00-1.39.77 5.84 5.84 0 00-.42 2.61v3.73h-1.95v-8.52h1.95zm4.56-5.03a1.18 1.18 0 01.36-.85 1.23 1.23 0 01.87-.36 1.16 1.16 0 01.86.34 1.27 1.27 0 010 1.74 1.16 1.16 0 01-.86.36 1.23 1.23 0 01-1.23-1.23zm.26 12.18v-8.5h1.94v8.5zm12.82-3.96h-6.8a2.91 2.91 0 00.71 1.86 2.2 2.2 0 001.7.67 2.88 2.88 0 001.57-.4 3.27 3.27 0 001.09-1.27l1.64.91a4.52 4.52 0 01-4.26 2.54 4.32 4.32 0 01-3.25-1.24 4.59 4.59 0 01-1.21-3.33 4.47 4.47 0 011.25-3.29 4.78 4.78 0 016.42-.11 4.56 4.56 0 011.14 3.29zm-2-1.31a2.15 2.15 0 00-.7-1.4 2.48 2.48 0 00-1.6-.48 2.37 2.37 0 00-1.54.47 2.54 2.54 0 00-.82 1.41zm2.96 3.73l1.62-.88a1.67 1.67 0 00.66 1 2.19 2.19 0 001.25.33 1.62 1.62 0 001-.3 1 1 0 00.37-.82c0-.46-.44-.86-1.33-1.18l-.69-.27a5.48 5.48 0 01-1.91-1.15 2 2 0 01-.54-1.42 2.25 2.25 0 01.89-1.85 3.73 3.73 0 012.37-.71 3.69 3.69 0 011.69.37 2.3 2.3 0 011 1l-1.39 1a1.33 1.33 0 00-.53-.64 1.6 1.6 0 00-.88-.24 1.45 1.45 0 00-.9.27.87.87 0 00-.33.7c0 .45.5.85 1.5 1.22l.74.27a4.37 4.37 0 011.68 1.06 2.12 2.12 0 01.51 1.46 2.4 2.4 0 01-.93 2 4 4 0 01-2.54.72 4.17 4.17 0 01-2.08-.46 3.18 3.18 0 01-1.23-1.48zm14.36 1.54V73.46h7.33v1.81h-5.19v3.28h5.19v1.87h-5.19v6.17zm11.03-7.15a2.75 2.75 0 01.83-1.24 2 2 0 011.28-.41 3.15 3.15 0 01.81.1 4.4 4.4 0 01.79.29l-.7 1.65a1.88 1.88 0 00-.55-.27 2.82 2.82 0 00-.65-.08 1.46 1.46 0 00-1.39.77 5.84 5.84 0 00-.42 2.61v3.73h-1.95v-8.52h1.95zM280 86.59h-1.95v-1.1a3.34 3.34 0 01-1.21 1.09 3.44 3.44 0 01-1.6.36 3.51 3.51 0 01-2.84-1.23 5.06 5.06 0 01-1-3.38 4.93 4.93 0 011-3.33 3.72 3.72 0 014.54-.81 2.49 2.49 0 011.06 1.25v-1.35h2zm-1.89-4.28a3.11 3.11 0 00-.62-2 2.37 2.37 0 00-3.34-.11l-.11.11a3.85 3.85 0 000 4.2 2.32 2.32 0 003.28.1l.16-.17a3.2 3.2 0 00.64-2.15zm4.5 4.28v-8.5h1.83v1.39a3.66 3.66 0 011.37-1.28 4.13 4.13 0 011.92-.41 3.89 3.89 0 011.62.3 2.29 2.29 0 011 .9 2.59 2.59 0 01.32.81 8.87 8.87 0 01.1 1.63v5.16h-2v-4.37a4.08 4.08 0 00-.4-2.23 1.73 1.73 0 00-1.45-.55 3 3 0 00-1.22.25 2 2 0 00-1.14 1.5 11.21 11.21 0 00-.08 1.53v3.87zm17.08-6.08a2.91 2.91 0 00-2.29-1 2.42 2.42 0 00-1.91.77 2.84 2.84 0 00-.72 2 3 3 0 00.72 2.09 2.63 2.63 0 002 .76 2.73 2.73 0 001.26-.27 2.69 2.69 0 001-.8v2.24a4.39 4.39 0 01-1.15.46 5.79 5.79 0 01-1.31.15 4.42 4.42 0 01-3.29-1.24 4.49 4.49 0 01-1.26-3.3 4.42 4.42 0 011.26-3.32 4.68 4.68 0 013.41-1.26 5.56 5.56 0 011.22.13 4 4 0 011 .4zm-4.85 9.61v-1c.48.11.9.2 1.25.25a7 7 0 00.92.08 1.27 1.27 0 00.69-.15.52.52 0 00.22-.46.56.56 0 00-.28-.51 2 2 0 00-.91-.15h-.37v-1.59h.77v.77h.16a2.35 2.35 0 011.5.4 1.41 1.41 0 01.5 1.17 1.32 1.32 0 01-.56 1.14 2.58 2.58 0 01-1.58.4 8.44 8.44 0 01-1-.09 11.67 11.67 0 01-1.31-.26zm14.75-3.53h-1.94v-1.1a3.26 3.26 0 01-2.81 1.45 3.51 3.51 0 01-2.84-1.23 5.12 5.12 0 01-1-3.38 4.93 4.93 0 011-3.33 3.74 3.74 0 014.55-.81 2.58 2.58 0 011.08 1.25v-1.35h1.94zm-1.89-4.28a3.12 3.12 0 00-.61-2 2.37 2.37 0 00-3.35-.11l-.11.11a3.25 3.25 0 00-.63 2.11 3.18 3.18 0 00.61 2.09 2.31 2.31 0 003.27.1l.16-.17a3.2 3.2 0 00.66-2.15zm4.3-7.9a1.15 1.15 0 01.37-.85 1.2 1.2 0 011.7 0 1.19 1.19 0 01.37.89 1.21 1.21 0 01-1.19 1.23 1.25 1.25 0 01-1.25-1.27zm.26 12.18v-8.5h2v8.5zm3.68-1.54l1.62-.88a1.67 1.67 0 00.66 1 2.19 2.19 0 001.25.33 1.56 1.56 0 001-.3 1 1 0 00.38-.82c0-.46-.45-.86-1.33-1.18l-.69-.27a5.48 5.48 0 01-1.91-1.15 2 2 0 01-.54-1.42 2.25 2.25 0 01.89-1.85 4.2 4.2 0 014.06-.34 2.2 2.2 0 011 1l-1.38 1a1.33 1.33 0 00-.53-.64 1.71 1.71 0 00-.88-.24 1.39 1.39 0 00-.9.27.87.87 0 00-.33.7c0 .45.5.85 1.5 1.22l.74.27a4.37 4.37 0 011.68 1.06 2.12 2.12 0 01.51 1.46 2.4 2.4 0 01-.93 2 4 4 0 01-2.54.72 4.17 4.17 0 01-2.08-.46 3.17 3.17 0 01-1.25-1.48zm16.92-2.42h-6.8a2.91 2.91 0 00.71 1.86 2.19 2.19 0 001.69.67 2.93 2.93 0 001.58-.4 3.27 3.27 0 001.09-1.27l1.64.91a4.52 4.52 0 01-4.26 2.54 4.36 4.36 0 01-3.26-1.24 4.66 4.66 0 01-1.25-3.33 4.55 4.55 0 011.25-3.29 4.78 4.78 0 016.42-.11 4.47 4.47 0 011.15 3.29zm-2-1.31a2.06 2.06 0 00-.7-1.4 2.42 2.42 0 00-3.4.24 2.5 2.5 0 00-.55 1.16zm2.96 3.73l1.61-.88a1.68 1.68 0 00.67 1 2.16 2.16 0 001.24.33 1.62 1.62 0 001-.3 1 1 0 00.38-.82c0-.46-.45-.86-1.33-1.18l-.69-.27a5.48 5.48 0 01-1.91-1.15 2 2 0 01-.54-1.42 2.25 2.25 0 01.89-1.85 4.18 4.18 0 014.05-.34 2.3 2.3 0 011 1l-1.38 1a1.33 1.33 0 00-.53-.64 1.66 1.66 0 00-.89-.24 1.36 1.36 0 00-.89.27.88.88 0 00-.34.7c0 .45.51.85 1.51 1.22l.74.27a4.37 4.37 0 011.68 1.06 2.12 2.12 0 01.51 1.46 2.4 2.4 0 01-.93 2 4 4 0 01-2.55.72 4.13 4.13 0 01-2.07-.46 3.18 3.18 0 01-1.23-1.48zM57.17 95.19h2v13.9h-2V108a3.15 3.15 0 01-1.17 1.08 3.34 3.34 0 01-1.59.36 3.52 3.52 0 01-2.84-1.23 5.17 5.17 0 01-1-3.38 4.94 4.94 0 011.06-3.29 3.46 3.46 0 012.76-1.25 3.34 3.34 0 011.78.44 2.46 2.46 0 011 1.27zm.06 9.62a3 3 0 00-.62-2 2.06 2.06 0 00-1.71-.81 2.16 2.16 0 00-1.74.76 3.31 3.31 0 00-.63 2.11 3.23 3.23 0 00.61 2.13 2.32 2.32 0 003.43-.06 3.15 3.15 0 00.66-2.13zm12.77.32h-6.8a3 3 0 00.71 1.86 2.23 2.23 0 001.7.67 2.85 2.85 0 001.57-.4 3.15 3.15 0 001-1.26l1.64.91a4.51 4.51 0 01-4.26 2.54 4.36 4.36 0 01-3.26-1.24 4.63 4.63 0 01-1.21-3.33 4.55 4.55 0 011.25-3.29 4.33 4.33 0 013.22-1.29 4.25 4.25 0 013.2 1.18 4.48 4.48 0 011.2 3.28zm-2-1.31a2 2 0 00-.7-1.4 2.44 2.44 0 00-1.59-.48 2.41 2.41 0 00-1.55.47 2.59 2.59 0 00-.81 1.41zm9.41 5.27v-13.9h2v13.9zm4.39-8.56l1.71-4.87 1.64.53L83 101zm14.56 8.56l-1.49-3.38h-5.21l-1.52 3.38h-2.25l6.36-13.65 6.36 13.65zm-5.91-5.16h3.66l-1.34-3c-.08-.19-.16-.41-.25-.66s-.16-.53-.25-.83c-.07.29-.15.55-.23.8s-.16.48-.24.69zm11.09 5.16h-2v-8.5h1.83V102a3.94 3.94 0 011.33-1.3 3.65 3.65 0 011.74-.41 3 3 0 011.65.42 2.61 2.61 0 011 1.27 4.61 4.61 0 011.43-1.28 3.61 3.61 0 011.73-.41 3.38 3.38 0 011.47.31 2.26 2.26 0 011 .91 2 2 0 01.23.66 5.05 5.05 0 01.08 1.1v5.84h-2v-4.37a4.46 4.46 0 00-.36-2.25 1.48 1.48 0 00-1.3-.55 1.81 1.81 0 00-1.63.74 4.82 4.82 0 00-.49 2.56v3.87h-2v-4.37a4.46 4.46 0 00-.38-2.19 1.41 1.41 0 00-1.31-.61 2 2 0 00-1 .27 2.15 2.15 0 00-.76.71 2.34 2.34 0 00-.25.73 14.1 14.1 0 00-.07 1.59zm22.25-3.96H117a2.82 2.82 0 00.71 1.86 2.19 2.19 0 001.69.67 2.85 2.85 0 001.57-.4 3.12 3.12 0 001.13-1.26l1.64.91a4.85 4.85 0 01-1.74 1.91 4.77 4.77 0 01-2.48.62 4.36 4.36 0 01-3.26-1.24 5.09 5.09 0 010-6.62 4.78 4.78 0 016.42-.11 4.43 4.43 0 011.15 3.29zm-2-1.31a2.06 2.06 0 00-.7-1.4 2.46 2.46 0 00-1.6-.48 2.38 2.38 0 00-1.54.47 2.6 2.6 0 00-.82 1.41zm5.82-3.23v4.79a2.58 2.58 0 00.51 1.78 2.85 2.85 0 003.32 0 2.48 2.48 0 00.51-1.78v-4.79h2v4.21a5.22 5.22 0 01-1 3.54 5 5 0 01-6.28 0 5.34 5.34 0 01-1-3.55v-4.21zm10.79-5.4V102a2.56 2.56 0 011.09-1.25 3.62 3.62 0 011.79-.44 3.41 3.41 0 012.75 1.25 5 5 0 011.05 3.29 5 5 0 01-1 3.38 3.5 3.5 0 01-2.84 1.23 3.4 3.4 0 01-1.59-.36 3.31 3.31 0 01-1.25-1.1v1.1h-2V95.19zm-.06 9.62a3.18 3.18 0 00.67 2.1 2.14 2.14 0 001.72.8 2.06 2.06 0 001.71-.73 3.82 3.82 0 000-4.2 2.35 2.35 0 00-3.33-.11l-.12.11a3.09 3.09 0 00-.65 2.03zm8.81 4.28v-13.9h1.94v13.9zm12.85-3.96h-6.8a3 3 0 00.71 1.86 2.23 2.23 0 001.7.67 2.85 2.85 0 001.57-.4 3.19 3.19 0 001.09-1.27l1.64.91a4.51 4.51 0 01-4.26 2.54 4.35 4.35 0 01-3.25-1.24 5 5 0 010-6.62 4.78 4.78 0 016.42-.11 4.56 4.56 0 011.14 3.29zm-2-1.31a2 2 0 00-.7-1.4 2.84 2.84 0 00-3.14 0 2.59 2.59 0 00-.81 1.41zm5.86 5.27h-2v-8.5h1.83V102a4 4 0 011.32-1.3 3.72 3.72 0 011.75-.41 3 3 0 011.65.42 2.61 2.61 0 011 1.27 4.38 4.38 0 011.43-1.28 3.58 3.58 0 011.72-.41 3.38 3.38 0 011.47.31 2.11 2.11 0 011 .91 1.75 1.75 0 01.24.66 5.05 5.05 0 01.08 1.1v5.84h-2v-4.37a4.46 4.46 0 00-.36-2.25 1.48 1.48 0 00-1.3-.55 1.83 1.83 0 00-1.64.74 4.92 4.92 0 00-.49 2.56v3.87h-2v-4.37a4.46 4.46 0 00-.38-2.19 1.46 1.46 0 00-1.32-.61 2.2 2.2 0 00-1 .27 2.12 2.12 0 00-.75.71 2.34 2.34 0 00-.25.73 14.1 14.1 0 00-.07 1.59zm22.23-3.96h-6.8A2.9 2.9 0 00180 107a2.19 2.19 0 001.69.67 2.85 2.85 0 001.57-.4 3.21 3.21 0 001.1-1.27l1.64.91a4.91 4.91 0 01-1.78 1.92 4.77 4.77 0 01-2.48.62 4.36 4.36 0 01-3.26-1.24 4.63 4.63 0 01-1.21-3.33 4.51 4.51 0 011.25-3.29 4.78 4.78 0 016.42-.11 4.43 4.43 0 011.15 3.29zm-2-1.31a2.06 2.06 0 00-.7-1.4 2.46 2.46 0 00-1.6-.48 2.38 2.38 0 00-1.54.47 2.6 2.6 0 00-.82 1.41zm3.91 5.27v-8.5h1.83V102a3.69 3.69 0 011.38-1.28 4.58 4.58 0 013.54-.11 2.35 2.35 0 011 .9 2.18 2.18 0 01.32.81 8.07 8.07 0 01.1 1.63v5.16h-2v-4.37a4.09 4.09 0 00-.41-2.23 1.7 1.7 0 00-1.45-.55 3 3 0 00-1.21.25 2 2 0 00-.84.71 2.06 2.06 0 00-.3.79 9.82 9.82 0 00-.09 1.53v3.87zm11.21 0v-6.8h-1.49v-1.7h1.49v-3.22h1.95v3.22h1.49v1.7h-1.49v6.8zm18.69-3.96h-6.81a3 3 0 00.71 1.86 2.23 2.23 0 001.7.67 2.85 2.85 0 001.57-.4 3.16 3.16 0 001.09-1.26l1.65.91a4.54 4.54 0 01-4.27 2.54 4.35 4.35 0 01-3.25-1.24 4.63 4.63 0 01-1.21-3.33 4.51 4.51 0 011.25-3.29 4.78 4.78 0 016.42-.11 4.47 4.47 0 011.15 3.29zm-2-1.31a2.06 2.06 0 00-.7-1.4 2.46 2.46 0 00-1.6-.48 2.38 2.38 0 00-1.54.47 2.6 2.6 0 00-.82 1.41zm4.39 5.27v-6.8h-1.49v-1.7h1.49v-3.22h2v3.22h1.48v1.7h-1.48v6.8zm16.55-13.9h2v13.9h-2V108a3.25 3.25 0 01-2.81 1.45 3.52 3.52 0 01-2.84-1.23 5.17 5.17 0 01-1-3.38 5.07 5.07 0 011.06-3.29 3.74 3.74 0 014.55-.81 2.58 2.58 0 011.08 1.25zm0 9.62a3.06 3.06 0 00-.61-2 2.37 2.37 0 00-3.35-.11l-.11.11a3.31 3.31 0 00-.63 2.11 3.24 3.24 0 00.61 2.09 2.32 2.32 0 003.28.1l.15-.15a3.24 3.24 0 00.65-2.16zm6.43-4.22v4.79a2.58 2.58 0 00.51 1.78 2.85 2.85 0 003.32 0 2.48 2.48 0 00.51-1.78v-4.79h1.95v4.21a5.22 5.22 0 01-1 3.54 5 5 0 01-6.28 0 5.34 5.34 0 01-1-3.55v-4.21zm14.48 8.5V96h3.31a10.45 10.45 0 012.09.15 3.25 3.25 0 011.16.5 2.92 2.92 0 01.94 1.18 3.55 3.55 0 01.34 1.6 2.91 2.91 0 01-.49 1.76 2.46 2.46 0 01-1.4 1 2.67 2.67 0 011.8 1 3.41 3.41 0 01.66 2.18 3.94 3.94 0 01-.28 1.52 3.06 3.06 0 01-.79 1.22 2.84 2.84 0 01-1.33.77 11.47 11.47 0 01-2.68.22zm2.09-7.59h.81a4.12 4.12 0 002.16-.41 1.56 1.56 0 00.63-1.41 1.73 1.73 0 00-.58-1.51 4 4 0 00-2.21-.43h-.81zm0 5.81h.73a11.67 11.67 0 001.68-.09 2.08 2.08 0 00.88-.32 1.53 1.53 0 00.61-.7 2 2 0 00.22-1 2.23 2.23 0 00-.26-1.1 1.88 1.88 0 00-.75-.73 2.38 2.38 0 00-.7-.22 5.54 5.54 0 00-1-.07h-1.38zm7.61-2.46a4.63 4.63 0 012.86-4.24 5 5 0 013.6 0 4.57 4.57 0 011.52 1 4.13 4.13 0 011 1.48 4.55 4.55 0 010 3.5 4.05 4.05 0 01-1 1.46 4.81 4.81 0 01-5.12 1 4.74 4.74 0 01-1.51-1 4.88 4.88 0 01-1-1.49 4.75 4.75 0 01-.35-1.71zm7.31 0a2.8 2.8 0 00-.76-2 2.44 2.44 0 00-1.86-.82 2.51 2.51 0 00-1.87.82 2.89 2.89 0 00-.76 2 2.84 2.84 0 00.76 2 2.48 2.48 0 001.87.82 2.44 2.44 0 001.86-.82 2.76 2.76 0 00.76-2zm3.88-7.94a1.18 1.18 0 01.36-.85 1.26 1.26 0 01.87-.36 1.13 1.13 0 01.86.34 1.27 1.27 0 010 1.74 1.11 1.11 0 01-.86.36 1.24 1.24 0 01-1.23-1.23zm.26 12.18v-8.5h2v8.5zm3.66-1.54l1.61-.88a1.65 1.65 0 00.67 1 2.2 2.2 0 001.24.33 1.62 1.62 0 001-.3 1 1 0 00.37-.82c0-.46-.44-.86-1.32-1.18l-.7-.27a5.53 5.53 0 01-1.9-1.15 2 2 0 01-.55-1.42 2.26 2.26 0 011-1.86 4.19 4.19 0 014-.34 2.3 2.3 0 011 1l-1.38 1a1.27 1.27 0 00-.53-.64 1.61 1.61 0 00-.89-.24 1.38 1.38 0 00-.89.27.87.87 0 00-.34.7c0 .45.5.85 1.51 1.22l.74.27a4.4 4.4 0 011.8 1.06 2.11 2.11 0 01.5 1.46 2.33 2.33 0 01-.92 2 4 4 0 01-2.55.72 4.16 4.16 0 01-2.07-.46 3.23 3.23 0 01-1.4-1.47z" fill="#3a4461"/><path class="cls-2" d="M9.37 29.87C9.37 17.72 17.63 8.61 29 8.61c7.59 0 12.48 2.7 16.28 7.84l6.92-4.89C47.25 4.56 39.91.42 29.28.42 12.91.42 0 12.91 0 29.87s12.66 29.45 29 29.45c11.13 0 18.64-3.89 24.55-11.73l-7-4.81c-4.31 5.57-9.79 8.35-17.22 8.35-11.56 0-20-8.86-20-21.26M87.83.42c-16.45 0-29.61 12.49-29.61 29.45s13.16 29.45 29.61 29.45 29.62-12.49 29.62-29.45S104.29.42 87.83.42zm0 50.71c-11.89 0-20.25-9.11-20.25-21.26S75.94 8.61 87.83 8.61s20.25 9.11 20.25 21.26-8.35 21.26-20.25 21.26zM214.31 9.2h26.75V1.18h-35.78v57.38h9.03V41.01h24.38v-8.02h-24.38V9.2zM266.54 0H266l-25.11 58.56H250l3.29-8h25.65l3.29 8h9.54zm-9.87 42.53l9.53-22.7 9.37 22.7z"/><path d="M127.05 1.19h9.55v57.37h-9.55zm55.99 0h9.55v57.37h-9.55zm116.76 0h9.55v57.37h-9.55z" fill="#778186"/><path class="cls-2" d="M127.15 58.55h9.45v.01h-9.45zm16.2-57.37h-5.24v8h4.74c14.85 0 21.34 8.52 21.34 20.67s-6.49 20.67-21.34 20.67h-4.74v8h5.24c18.82 0 30.21-11.73 30.21-28.69S162.08 1.18 143.35 1.18z"/><rect class="cls-2" x="309.35" y="1.19" height="7.76"/><path class="cls-2" d="M309.35 50.79v7.76h-9.55v.01h9.55v-7.77zM330 26.75a11.75 11.75 0 006.92-10.89c0-8.18-5.32-14.68-16.79-14.68h-9.27v7.76h8.76c6.33 0 8.35 2.79 8.35 7.17 0 4.73-2.11 7.6-8.35 7.6h-8.76V31h9.86c7.84 0 11 4 11 10s-2.7 9.87-10.63 9.87h-10.24v7.77h10.79C334.8 58.56 341 51 341 41.26c0-7.43-4.26-12.57-11-14.51z"/><rect class="cls-2" x="309.35" y="23.71" height="7.26"/></g></g></svg>