<?xml version="1.0" encoding="UTF-8"?>
<svg id="Calque_1" data-name="Calque 1" xmlns="http://www.w3.org/2000/svg" xmlns:xlink="http://www.w3.org/1999/xlink" viewBox="0 50 648.64 160">
  <defs>
    <style>path, polygon, rect, circle { fill: #3B4F5B !important; }</style>
    
    <linearGradient id="Dégradé_sans_nom_24-2" data-name="Dégradé sans nom 24" x1="135.59" y1="122.01" x2="133.15" y2="135.82" xlink:href="#Dégradé_sans_nom_24"/>
    <linearGradient id="Dégradé_sans_nom_24-3" data-name="Dégradé sans nom 24" x1="161.73" y1="122.41" x2="153.87" y2="167.01" xlink:href="#Dégradé_sans_nom_24"/>
    <linearGradient id="Dégradé_sans_nom_24-4" data-name="Dégradé sans nom 24" x1="195.22" y1="119.09" x2="186.2" y2="170.28" xlink:href="#Dégradé_sans_nom_24"/>
    <linearGradient id="Dégradé_sans_nom_24-5" data-name="Dégradé sans nom 24" x1="247.03" y1="119.09" x2="238.01" y2="170.28" xlink:href="#Dégradé_sans_nom_24"/>
    <linearGradient id="Dégradé_sans_nom_24-6" data-name="Dégradé sans nom 24" x1="299.18" y1="122.71" x2="291.42" y2="166.71" xlink:href="#Dégradé_sans_nom_24"/>
    <linearGradient id="Dégradé_sans_nom_24-7" data-name="Dégradé sans nom 24" x1="341.62" y1="118.41" x2="333.29" y2="165.68" xlink:href="#Dégradé_sans_nom_24"/>
    <linearGradient id="Dégradé_sans_nom_24-8" data-name="Dégradé sans nom 24" x1="383.82" y1="123.74" x2="375.49" y2="171" xlink:href="#Dégradé_sans_nom_24"/>
    <linearGradient id="Dégradé_sans_nom_24-9" data-name="Dégradé sans nom 24" x1="417.64" y1="118.71" x2="409.22" y2="166.47" xlink:href="#Dégradé_sans_nom_24"/>
    <linearGradient id="Dégradé_sans_nom_24-10" data-name="Dégradé sans nom 24" x1="456.16" y1="122.25" x2="448.24" y2="167.18" xlink:href="#Dégradé_sans_nom_24"/>
    <linearGradient id="Dégradé_sans_nom_24-11" data-name="Dégradé sans nom 24" x1="489.16" y1="122.69" x2="481.4" y2="166.68" xlink:href="#Dégradé_sans_nom_24"/>
    <linearGradient id="Dégradé_sans_nom_24-12" data-name="Dégradé sans nom 24" x1="540.8" y1="119.26" x2="531.84" y2="170.11" xlink:href="#Dégradé_sans_nom_24"/>
  </defs>
  <g>
    <path class="cls-10" d="M98.02,96v57.59c.4,2.8,2.6,5.1,5.5,5.5h23.5v8h-22.74c-.25,0-.5-.03-.75-.04-.96-.05-1.89-.18-2.78-.42-.96-.25-1.88-.58-2.74-1-2.85-1.38-5.13-3.67-6.49-6.52-.24-.47-.45-.96-.64-1.46-.49-1.29-.74-2.67-.81-4.13-.01-.23-.04-.46-.04-.69v-63.48l8,6.66Z"/>
    <path class="cls-9" d="M130.43,122.47h7.78v13.55h-3.89l-3.89-6.81v-6.81.06Z"/>
    <path class="cls-1" d="M161.69,122.41v44.62h-7.78v-44.62h7.78Z"/>
    <path class="cls-2" d="M205.68,122.41h8.33v44.55l-8.33-6.14-29.97-22.06v28.2h-8.33v-44.43l8.33,6.14,29.97,22.13v-28.39h0Z"/>
    <path class="cls-5" d="M257.49,122.41h8.33v44.55l-8.33-6.14-29.97-22.06v28.2h-8.33v-44.43l8.33,6.14,29.97,22.13v-28.39h0Z"/>
    <path class="cls-11" d="M295.3,122.41c-12.83,0-23.28,10.03-23.28,22.31s10.46,22.31,23.28,22.31,23.28-10.03,23.28-22.31-10.46-22.31-23.28-22.31ZM295.3,159.12c-8.27,0-14.95-6.44-14.95-14.34s6.69-14.34,14.95-14.34,14.95,6.44,14.95,14.34-6.69,14.34-14.95,14.34Z"/>
    <path class="cls-6" d="M364.26,122.41l-4.19,7.96-19.15,36.65-19.15-36.65-4.19-7.96h9.12l4.19,7.96,9.97,19.15,9.97-19.15,4.19-7.96h9.24Z"/>
    <path class="cls-13" d="M395.28,159.06l4.19,7.96h-9.12l-4.19-7.96-9.97-19.15-9.97,19.15-4.19,7.96h-9.12l4.19-7.96,19.15-36.65,19.15,36.65h-.12Z"/>
    <path class="cls-15" d="M394.04,122.41h-.06,44.62v8.02h-18.3v36.59h-7.96v-36.59h-18.3v-8.02h0Z"/>
    <path class="cls-7" d="M457.06,122.41v44.62h-9.73v-44.62h9.73Z"/>
    <path class="cls-8" d="M487.89,122.53c-.85-.12-1.7-.12-2.61-.12s-2.25.06-3.34.24c-11.25,1.52-19.94,10.88-19.94,22.06s10.45,22.31,23.28,22.31,23.28-10.03,23.28-22.31-9.06-20.91-20.67-22.19ZM485.34,159.12c-8.27,0-14.95-6.44-14.95-14.34s6.69-14.34,14.95-14.34,14.95,6.44,14.95,14.34-6.69,14.34-14.95,14.34Z"/>
    <path class="cls-3" d="M550.65,122.41h7.96v44.55l-7.96-6.14-28.69-22.06v28.2h-7.96v-44.43l7.96,6.14,28.69,22.13v-28.39h0Z"/>
  </g>
  
  
  <g>
  </g>
  <path class="cls-12" d="M217.99,178.56h-11.2v22.39h11.2c3.09,0,5.88-1.25,7.9-3.29.23-.23.44-.47.64-.71,1.66-1.94,2.65-4.47,2.65-7.21,0-6.19-5.02-11.19-11.19-11.19ZM217.99,196.96h-7.21v-14.41h7.21c3.96,0,7.2,3.23,7.2,7.2s-3.23,7.21-7.2,7.21Z"/>
  <path class="cls-12" d="M236.38,184.61v2.08h14.41v3.99h-14.41v4.23c0,1.13.92,2.06,2.05,2.06h16.35v3.99h-16.35c-3.34,0-6.04-2.71-6.04-6.05v-10.29c0-3.34,2.7-6.05,6.04-6.05h16.35v3.99h-16.35c-1.13,0-2.05.93-2.05,2.06Z"/>
  <path class="cls-12" d="M288.85,196.95v3.99h-11.35c-1.13,0-2.19-.27-3.14-.73-1.42-.69-2.57-1.84-3.25-3.26-.48-.94-.75-2.01-.75-3.14v-15.26h3.99v15.66c.19,1.42,1.32,2.55,2.74,2.74h11.75Z"/>
  <polygon class="cls-12" points="314.86 200.96 310.38 200.96 308.33 196.95 303.45 187.36 298.57 196.95 296.52 200.96 292.04 200.96 294.07 196.95 303.45 178.56 312.83 196.95 314.86 200.96"/>
  <path class="cls-12" d="M352.82,178.56v3.99h-16.35c-1.13,0-2.05.93-2.05,2.06v2.08h14.41v3.99h-14.42v10.27h-3.98v-16.33c0-3.34,2.7-6.05,6.04-6.05h16.35Z"/>
  <rect class="cls-12" x="356.03" y="178.56" width="4" height="22.39"/>
  <path class="cls-12" d="M381.71,196.95v3.99h-11.35c-1.13,0-2.19-.27-3.14-.73-1.42-.69-2.57-1.84-3.25-3.26-.48-.94-.75-2.01-.75-3.14v-15.26h3.99v15.66c.19,1.42,1.32,2.55,2.74,2.74h11.75Z"/>
  <rect class="cls-12" x="384.9" y="178.56" width="4" height="22.39"/>
  <path class="cls-12" d="M396.09,184.61v2.08h14.41v3.99h-14.41v4.23c0,1.13.92,2.06,2.05,2.06h16.35v3.99h-16.35c-3.34,0-6.04-2.71-6.04-6.05v-10.29c0-3.34,2.7-6.05,6.04-6.05h16.35v3.99h-16.35c-1.13,0-2.05.93-2.05,2.06Z"/>
  <path class="cls-12" d="M432.58,190.61h0c.61-.07,1.2-.24,1.74-.49,2.09-.94,3.54-3.06,3.54-5.51,0-1.66-.68-3.18-1.77-4.28-1.09-1.09-2.59-1.77-4.27-1.77h-14.13v22.4h3.99v-10.3h3.99c1.45,0,2.71.77,3.41,1.92l.1.18,2.14,4.2,2.05,4h4.48l-2.04-4-3.23-6.34ZM421.69,186.67v-4.12h10.14c.71,0,1.17.33,1.44.59.23.24.61.75.61,1.48,0,.81-.47,1.54-1.21,1.88-.27.13-.54.19-.84.19h-10.14Z"/>
  <path class="cls-12" d="M445.05,184.61v2.08h14.41v3.99h-14.41v4.23c0,1.13.92,2.06,2.05,2.06h16.35v3.99h-16.35c-3.34,0-6.04-2.71-6.04-6.05v-10.29c0-3.34,2.7-6.05,6.04-6.05h16.35v3.99h-16.35c-1.13,0-2.05.93-2.05,2.06Z"/>
  <path class="cls-12" d="M498.24,187.87c.61-.94.97-2.06.97-3.27,0-3.34-2.71-6.05-6.05-6.05h-14.12v22.39h0s15.25,0,15.25,0c3.94,0,7.14-3.2,7.14-7.14,0-2.48-1.27-4.66-3.19-5.94ZM483.03,182.55h10.13c1.13,0,2.06.92,2.06,2.06s-.92,2.06-2.06,2.06h-10.13v-4.12ZM494.29,196.96h-11.26v-6.29h11.26c1.74,0,3.15,1.41,3.15,3.15s-1.41,3.15-3.15,3.15Z"/>
  <path class="cls-12" d="M515.83,178.56c-6.18,0-11.19,5.01-11.19,11.19s5.01,11.2,11.19,11.2,11.2-5.01,11.2-11.2-5.01-11.19-11.2-11.19ZM515.83,196.96c-3.97,0-7.2-3.23-7.2-7.2s3.23-7.2,7.2-7.2,7.21,3.23,7.21,7.2-3.23,7.2-7.21,7.2Z"/>
  <rect class="cls-12" x="530.24" y="178.56" width="4" height="22.39"/>
  <path class="cls-12" d="M554.62,184.73v-.12c0-1.13-.93-2.05-2.06-2.05h-9.08c-1.13,0-2.05.92-2.05,2.05v.12c0,1.13.92,2.05,2.05,2.05h8.05c2.08,0,3.94.89,5.23,2.31.11.09.19.2.27.31,1,1.22,1.6,2.78,1.6,4.47,0,3.91-3.18,7.08-7.09,7.08h-7.01c-3.91,0-7.08-3.17-7.08-7.08h3.99c0,1.7,1.38,3.09,3.09,3.09h7.01c1.7,0,3.1-1.38,3.1-3.09s-1.4-3.09-3.1-3.09h-8.05c-1.64,0-3.1-.64-4.18-1.69-.29-.28-.56-.58-.78-.93-.68-.97-1.08-2.16-1.08-3.43v-.12c0-3.34,2.7-6.05,6.04-6.05h9.08c3.34,0,6.05,2.71,6.05,6.05v.12h-3.99Z"/>
  <g>
    <path class="cls-12" d="M117.74,94.67v5.99h-17.02c-1.7,0-3.29-.4-4.71-1.1-2.14-1.04-3.85-2.75-4.87-4.89-.72-1.42-1.12-3.01-1.12-4.71v-22.89h5.99v23.49c.28,2.14,1.97,3.83,4.11,4.11h17.62Z"/>
    <path class="cls-12" d="M156.76,100.68h-6.72l-3.07-6.01-7.32-14.39-7.32,14.39-3.07,6.01h-6.72l3.05-6.01,14.07-27.6,14.07,27.6,3.05,6.01Z"/>
  </g>
  <path class="cls-12" d="M225.5,66.91v24.53c0,5.01-4.07,9.06-9.08,9.06h-15.45c-5.01,0-9.08-4.05-9.08-9.06v-6.31h5.99v6.31c0,1.7,1.4,3.07,3.09,3.07h15.45c1.7,0,3.09-1.38,3.09-3.07v-24.53h5.99Z"/>
  <path class="cls-12" d="M263.88,83.71c0,9.28-7.52,16.79-16.79,16.79s-16.79-7.52-16.79-16.79,7.52-16.79,16.79-16.79,16.79,7.52,16.79,16.79ZM257.89,83.7c0-5.96-4.85-10.81-10.81-10.81s-10.8,4.85-10.8,10.81,4.85,10.81,10.8,10.81,10.81-4.85,10.81-10.81Z"/>
  <path class="cls-12" d="M302.3,66.9v16.8c0,9.28-7.52,16.8-16.8,16.8s-16.8-7.52-16.8-16.8v-16.8h5.99v16.8c0,5.97,4.85,10.82,10.82,10.82s10.82-4.85,10.82-10.82v-16.8h5.99Z"/>
  <path class="cls-12" d="M334.27,94.5l3.05,6.01h-6.73l-3.07-6.01-3.21-6.3-.14-.27c-1.04-1.72-2.93-2.87-5.11-2.87h-5.99v15.45h-5.99v-33.61h21.2c2.51,0,4.77,1.02,6.41,2.65,1.64,1.66,2.65,3.93,2.65,6.43,0,3.67-2.17,6.84-5.31,8.26-.82.38-1.7.64-2.61.74h0l4.85,9.52ZM328.29,79.08c.44,0,.86-.08,1.26-.28,1.12-.5,1.82-1.6,1.82-2.81,0-1.1-.58-1.86-.92-2.22-.4-.38-1.1-.88-2.16-.88h-15.21v6.19h15.21Z"/>
  <path class="cls-12" d="M375.74,66.9v33.61l-6.01-4.63-21.59-16.64v21.27h-6.01v-33.49l6.01,4.63,21.59,16.64v-21.39h6.01Z"/>
  <path class="cls-12" d="M386.52,75.98v3.11h21.61v5.99h-21.61v6.35c0,1.7,1.38,3.09,3.07,3.09h24.53v5.99h-24.53c-5.01,0-9.06-4.07-9.06-9.08v-15.45c0-5.01,4.05-9.08,9.06-9.08h24.53v5.99h-24.53c-1.7,0-3.07,1.4-3.07,3.09Z"/>
  <path class="cls-12" d="M424.92,75.98v3.11h21.61v5.99h-21.61v6.35c0,1.7,1.38,3.09,3.07,3.09h24.53v5.99h-24.53c-5.01,0-9.06-4.07-9.06-9.08v-15.45c0-5.01,4.05-9.08,9.06-9.08h24.53v5.99h-24.53c-1.7,0-3.07,1.4-3.07,3.09Z"/>
  <g>
    <path class="cls-12" d="M520.22,83.87c0,4.11-1.48,7.9-3.97,10.82-.3.36-.62.72-.96,1.06-3.03,3.05-7.22,4.93-11.85,4.93h-16.8v-33.59h16.8c9.26,0,16.78,7.5,16.78,16.78ZM514.23,83.87c0-5.95-4.85-10.8-10.8-10.8h-10.82v21.61h10.82c5.95,0,10.8-4.85,10.8-10.82Z"/>
    <path class="cls-12" d="M531.02,76.15v3.11h21.61v5.99h-21.61v6.35c0,1.7,1.38,3.09,3.07,3.09h24.53v5.99h-24.53c-5.01,0-9.06-4.07-9.06-9.08v-15.45c0-5.01,4.05-9.08,9.06-9.08h24.53v5.99h-24.53c-1.7,0-3.07,1.4-3.07,3.09Z"/>
  </g>
  <g>
    <path class="cls-4" d="M157.1,194.41c-2.21,2.41-4.71,5.15-8.04,6.58h-10.87c-.53-.2-1.07-.41-1.62-.65l-.23-1.57c10.66,3.85,18.01-.24,20.23-8.96,3.06-11.91-15.95-14.39-23.16-4.2-.83,1.18-2.27,7.14-1.79,8.31.46,1.13,1.91,2.02,2.77,2.87.06.06.13.12.18.18.5.53.71,1.06.21,1.61-5.29-2.48-5.96-4.74-4.61-9.23,1.71-5.74,5.65-9.2,10.07-10.76h11.32c5.79,2.16,9.44,7.79,5.54,15.84Z"/>
    <path class="cls-4" d="M159.97,196.03c-.22.42-4.58,5.05-2.28,4.44,1.36-.36,4.72-5.17,5.29-6.47,2.18-4.95.1-11.89-5.12-15.43h-1.72c6.2,4.39,6.99,11.31,3.83,17.46Z"/>
    <path class="cls-4" d="M152.8,181.65c-12.09-7.55-25.49,7.98-18.39,15.13.06.06.13.12.18.18,1.36,1.28,3.42,2.27,6.31,2.78,8.43,1.47,14.96-5.64,15.3-11.62.17-2.91-.35-4.56-3.39-6.47ZM144.96,193.54c-5.15,1.65-8.35-6.34-3.19-8.42.24-.1,5.33-.5,5.57-.4,3.98,1.77,1.63,7.53-2.39,8.82Z"/>
    <path class="cls-4" d="M108.81,183.62c.79-1.61,1.83-3.32,3.09-5.04h-2.3c-4.36,7.12-5.77,15.33-2.62,22.42h1.79c-2.11-5.53-2.1-12.96.05-17.37Z"/>
    <path class="cls-4" d="M114.75,200.99h-5.02c-.77-1.68-1.32-3.49-1.62-5.44-.89-5.8.95-11.75,4.6-16.98h4.51c-5.42,6.55-7.15,14.72-2.47,22.42Z"/>
    <path class="cls-4" d="M147.39,185.69c-.39-.21-3.2-.27-3.73-.14-5.24,1.28-4.39,4.84-1.22,7.33,4.49,1.11,8.57-5.28,4.95-7.19Z"/>
    <path class="cls-4" d="M123.4,200.99h-5.11c-3.97-6.16-4.12-14.01,2.43-21.83-6.9,7.26-7.71,15.02-3.25,21.83h-2.39c-4.08-7.12-2.35-15.64,3.03-22.42h9.16c-6.65,5.58-9.58,16.58-3.87,22.42Z"/>
    <path class="cls-4" d="M122.78,190.52c.91-4.16,4.09-8.66,8.47-11.94h-3.09c-7.19,6.27-9.94,15.46-3.59,22.42h2.66c-3.39-2.77-5.35-6.4-4.45-10.47Z"/>
    <path class="cls-4" d="M164.25,200.99h-6.15c7.85-6.88,8.14-17.17,1.01-22.42h5.12c5.41,5.84,6.32,14.53.01,22.42Z"/>
    <path class="cls-4" d="M129.31,184.01c-5.88,6.88-3.78,13.24,1.72,16.98h-3.17c-7.47-6.05-5.01-15.68,4.24-22.42h3.08c-2.16,1.44-4.02,3.29-5.87,5.44Z"/>
    <path class="cls-4" d="M136.16,200.99h-4.24c-7.01-4.52-7.64-13.46,1.3-19.52l-3.69,7.4c-.09,2.44-1.77,5.24.35,7.52,1.93,2.08,4.06,3.59,6.28,4.6Z"/>
    <path class="cls-4" d="M173.58,191.64c-.4,3.44-1.52,6.57-3.21,9.35h-5.45c2.2-2.78,3.76-5.83,4.5-8.87,1.26-5.28-.53-9.99-4.08-13.55h5.02c2.58,3.58,3.81,7.99,3.22,13.06Z"/>
    <path class="cls-4" d="M160.73,192.37c.87-3.43.62-6.86-1.7-9.92l.35,7.52c-1.15,5.1-4.62,8.99-9.03,11.02h3.04c3.68-2.17,6.51-5.34,7.34-8.62Z"/>
    <path class="cls-14" d="M106.97,200.99h-.45c-.77-1.75-1.34-3.57-1.67-5.47-.8-4.51-.99-7.86,1.77-12.08-.03-1.66-1.68,1.41-1.94,1.63.94-2.04,2.22-4.25,3.8-6.5h1.1c-4.37,7.12-5.77,15.33-2.62,22.42Z"/>
    <path class="cls-14" d="M177.93,200.99h-.77c3.3-6.51,2.61-13.05-.05-20.38,3.93,7.35,3.97,14.13.82,20.38Z"/>
    <path class="cls-14" d="M187.05,178.57h-.01s-.01-.05-.03-.07c.01.02.03.05.04.07Z"/>
    <path class="cls-14" d="M185.82,200.99s-.01.02-.01.03v-.03h.01Z"/>
    <path class="cls-14" d="M108.11,195.55c.3,1.95.85,3.76,1.62,5.44h-.98c-2.12-5.53-2.11-12.96.05-17.37.78-1.61,1.84-3.33,3.08-5.05h.82c-3.65,5.23-5.48,11.17-4.6,16.98Z"/>
    <path class="cls-14" d="M174.27,193.07c-.57,2.8-1.72,5.46-3.33,7.91h-.58c1.7-2.79,2.81-5.91,3.21-9.35.59-5.07-.64-9.48-3.22-13.06h.71c2.98,4.08,4.3,9.05,3.21,14.5Z"/>
    <path class="cls-14" d="M115.07,200.99h-.32c-4.69-7.69-2.95-15.87,2.47-22.42h.89c-5.38,6.78-7.11,15.3-3.03,22.42Z"/>
    <path class="cls-14" d="M176.17,194c.58-5.9-.68-11.14-3.43-15.43h1.55c3.62,5.62,3.98,14.56,1.45,19.81.37-1.15.3-3.15.42-4.38Z"/>
    <path class="cls-14" d="M118.29,200.99h-.82c-4.46-6.81-3.65-14.57,3.25-21.83-6.55,7.82-6.4,15.67-2.43,21.83Z"/>
    <path class="cls-14" d="M169.42,192.12c-.73,3.04-2.3,6.09-4.5,8.87h-.67c6.31-7.88,5.39-16.57-.01-22.42h1.09c3.56,3.56,5.34,8.27,4.08,13.55Z"/>
    <path class="cls-14" d="M124.57,200.99h-1.17c-5.71-5.83-2.79-16.83,3.87-22.42h.9c-7.19,6.28-9.94,15.46-3.6,22.42Z"/>
    <path class="cls-14" d="M158.1,200.99h-4.71c3.69-2.16,6.51-5.34,7.35-8.62.86-3.43.62-6.87-1.7-9.93l.35,7.53c-1.16,5.1-4.62,8.99-9.04,11.01h-1.28c3.33-1.43,5.83-4.16,8.04-6.58,3.9-8.05.26-13.68-5.54-15.84h4.57c6.2,4.39,7,11.31,3.83,17.46-.21.42-4.57,5.05-2.27,4.45,1.36-.36,4.71-5.17,5.29-6.48,2.18-4.95.09-11.89-5.12-15.43h1.26c7.13,5.25,6.83,15.54-1.01,22.42Z"/>
    <path class="cls-14" d="M156.57,189.81c-2.22,8.72-9.57,12.81-20.23,8.96l.23,1.57c.55.24,1.09.45,1.62.65h-2.03c-2.22-1.01-4.35-2.51-6.28-4.6-2.12-2.28-.44-5.08-.35-7.52l3.69-7.4c-8.94,6.06-8.31,15-1.3,19.52h-.9c-5.5-3.73-7.6-10.1-1.72-16.98,1.85-2.15,3.71-4,5.87-5.44h5.07c-4.42,1.56-8.36,5.02-10.07,10.76-1.35,4.5-.68,6.75,4.61,9.23.5-.55.3-1.08-.21-1.61,1.36,1.28,3.42,2.27,6.31,2.78,8.43,1.47,14.96-5.64,15.3-11.62.17-2.91-.35-4.56-3.39-6.47-12.09-7.55-25.49,7.98-18.39,15.13-.86-.84-2.31-1.74-2.77-2.87-.49-1.17.95-7.13,1.79-8.31,7.21-10.19,26.21-7.7,23.16,4.2Z"/>
    <path class="cls-14" d="M122.78,190.52c-.9,4.07,1.06,7.7,4.45,10.47h.63c-7.47-6.06-5.01-15.68,4.23-22.42h-.84c-4.38,3.29-7.55,7.79-8.47,11.94Z"/>
    <path class="cls-14" d="M134.58,196.95c-.06-.06-.12-.12-.18-.18.06.06.12.12.18.18Z"/>
    <path class="cls-14" d="M144.96,193.54c4.02-1.29,6.38-7.06,2.39-8.82-.24-.11-5.32.3-5.57.4-5.16,2.08-1.96,10.06,3.18,8.42ZM143.66,185.55c.53-.13,3.34-.07,3.73.14,3.62,1.91-.46,8.3-4.95,7.19-3.18-2.48-4.02-6.05,1.22-7.33Z"/>
    <path class="cls-4" d="M104.68,185.07c.94-2.04,2.22-4.25,3.8-6.5h-5.68c-1.82,3.23-2.98,6.56-3.25,9.81-.09.08-.19.17-.3.25.03-3.23,1.1-6.67,2.93-10.06h-2.79c-3.19,6.95-4.24,15.21-2.44,22.42h-.73c-1.73-7.38-.87-15.82,2.61-22.42h0s-2.73,0-2.73,0h0c-2.9,5.83-4.16,14.11-3.09,21.57.91.54,1.96.85,3.09.85h8.18s2.23,0,2.23,0c-.77-1.75-1.34-3.57-1.67-5.47-.8-4.51-.99-7.86,1.77-12.08-.03-1.66-1.68,1.41-1.94,1.63ZM99.66,200.99c-.45-2.54-.51-5.37.14-7.27.21,2.57.39,4.99.77,7.27h-.91Z"/>
    <path class="cls-4" d="M95.79,178.57h-5.76v16.33c0,1.76.75,3.33,1.94,4.44-.88-7.32.59-14.28,3.83-20.77Z"/>
    <path class="cls-14" d="M96.11,178.57h-.32c-3.24,6.5-4.71,13.45-3.83,20.77.32.3.68.57,1.06.8-1.08-7.45.19-15.74,3.09-21.57Z"/>
    <polygon class="cls-14" points="98.84 178.57 98.84 178.57 98.84 178.57 98.84 178.57"/>
    <path class="cls-14" d="M96.23,200.99h.73c-1.8-7.21-.74-15.47,2.44-22.42h-.57s0,0,0,0c-3.48,6.6-4.34,15.03-2.61,22.42Z"/>
    <path class="cls-14" d="M99.56,188.38c.27-3.25,1.43-6.58,3.25-9.81h-.62c-1.82,3.39-2.9,6.83-2.93,10.06.1-.08.21-.17.3-.25Z"/>
    <path class="cls-14" d="M99.66,200.99h.91c-.38-2.28-.56-4.7-.77-7.27-.65,1.9-.59,4.73-.14,7.27Z"/>
    <path class="cls-4" d="M190.41,178.57h-8.53c3.75,6.7,4.65,14.57,1.79,22.42h-.9,6.3s0,0,.01,0h-.9c1.79-5.3,2.3-10.84,1.35-15.76,1.4,5.22,1.49,10.58,0,15.74.85-.07,1.65-.31,2.35-.7,1.93-6.88,1.57-14.32-1.49-21.7Z"/>
    <path class="cls-4" d="M191.04,178.57s0,0,0,0c2.38,5.39,3.1,11.24,2.43,17.01-.17,1.41-.44,2.8-.79,4.17,1.39-1.08,2.28-2.76,2.28-4.65v-16.53h-3.92Z"/>
    <path class="cls-4" d="M181.28,178.57h-6.99c3.62,5.62,3.98,14.56,1.45,19.81.37-1.15.29-3.15.42-4.38.58-5.9-.68-11.14-3.43-15.43h-1.68c2.98,4.08,4.3,9.05,3.21,14.5-.57,2.8-1.72,5.46-3.33,7.91h6.22c3.3-6.51,2.61-13.05-.05-20.38,3.93,7.35,3.97,14.13.82,20.38h4.84c2.93-8.01,2.22-15.84-1.49-22.42Z"/>
    <path class="cls-14" d="M189.54,200.99s0-.02,0-.02c-.15.01-.3.02-.46.02h.45Z"/>
    <path class="cls-14" d="M189.54,185.23c.95,4.92.44,10.46-1.35,15.76h.9c.15,0,.31-.01.46-.02,1.48-5.15,1.39-10.51,0-15.74Z"/>
    <path class="cls-14" d="M191.04,178.57h0s-.63,0-.63,0c3.05,7.38,3.41,14.81,1.49,21.7.28-.15.53-.33.78-.52.35-1.37.62-2.77.79-4.17.67-5.76-.05-11.62-2.43-17.01Z"/>
    <path class="cls-14" d="M181.89,178.57h-.6c3.71,6.58,4.42,14.41,1.49,22.42h.9c2.86-7.84,1.96-15.72-1.79-22.42Z"/>
  </g>
  <polygon class="cls-12" points="402.06 55.35 389.93 61.44 391.06 63.71 398.65 63.7 398.65 63.7 404.72 60.65 402.06 55.35"/>
  <polygon class="cls-12" points="399.12 171.06 407.24 175.14 406.48 176.65 401.4 176.65 401.4 176.65 397.34 174.61 399.12 171.06"/>
</svg>