<svg xmlns="http://www.w3.org/2000/svg" width="289" height="65" fill="none"><path fill="#0076B2" d="M289 19.175q0 .85-.274 1.52c-.193.447-.436.832-.75 1.136-.315.304-.67.547-1.085.71a3.555 3.555 0 0 1-2.586 0 3.1 3.1 0 0 1-1.085-.71 3.3 3.3 0 0 1-.74-1.136c-.192-.446-.284-.953-.284-1.52s.092-1.075.284-1.521c.183-.447.426-.832.74-1.136.315-.304.67-.548 1.085-.71a3.5 3.5 0 0 1 1.298-.243c.456 0 .882.081 1.288.243.415.162.78.396 1.085.71.314.304.557.69.75 1.136q.274.67.274 1.52m-.73 0c0-.437-.061-.842-.203-1.197a2.8 2.8 0 0 0-.548-.933 2.3 2.3 0 0 0-.851-.598 2.7 2.7 0 0 0-1.075-.213c-.385 0-.75.071-1.085.213a2.4 2.4 0 0 0-.842.598 3 3 0 0 0-.557.933 3.5 3.5 0 0 0-.203 1.196c0 .436.071.842.203 1.197.132.365.324.67.557.933s.518.456.842.598c.335.142.69.213 1.085.213s.75-.071 1.075-.213.608-.335.851-.598c.234-.264.416-.568.548-.933a3.5 3.5 0 0 0 .203-1.197m-1.694 1.977a8 8 0 0 0-.506-.852c-.193-.264-.355-.487-.497-.639h-.67v1.49h-.709V17.29a5.529 5.529 0 0 1 1.115-.122c.578 0 1.004.101 1.308.314.294.213.446.538.446.963 0 .244-.071.457-.193.64a1.3 1.3 0 0 1-.547.425c.061.081.142.183.233.294q.122.183.274.395.136.213.274.457c.091.162.172.314.243.476h-.771zm-1.673-2.069h.376c.304 0 .547-.04.75-.121.203-.082.294-.254.294-.518 0-.263-.091-.415-.284-.517a1.6 1.6 0 0 0-.679-.142h-.233c-.082 0-.153 0-.234.02v1.278z"/><path fill="#0D75B3" d="M53.16 27.134c0 14.682-11.903 26.575-26.585 26.575S0 41.815 0 27.134C0 12.452 11.904.559 26.575.559c14.672 0 26.585 11.903 26.585 26.575"/><path fill="#fff" d="M9.967 36.28a.76.76 0 0 1-.385-.102.756.756 0 0 1-.264-1.034l8.395-14.246c.64-1.085 1.582-1.713 2.586-1.724s1.967.578 2.636 1.633l8.172 12.765c.396.619.893.953 1.39.953s.993-.344 1.389-.963l8.77-13.79a.755.755 0 0 1 1.044-.232c.345.223.447.689.234 1.034l-8.77 13.79c-.67 1.054-1.633 1.652-2.657 1.662-1.014 0-1.978-.598-2.657-1.653l-8.172-12.755c-.396-.608-.872-.963-1.349-.933-.476 0-.943.355-1.308.984l-8.405 14.245a.77.77 0 0 1-.649.365"/><path fill="#0D75B3" d="m160.059 32.021 2.92-10.565 3.001 10.565h-5.920999999999999m4.35-15.95a.3.3 0 0 0-.041-.161v-.061l-.111-.112-.102-.111-.04-.061v-.03h-.041v-.03h-.04v-.031h-.041l-.172-.092a1.5 1.5 0 0 0-.264-.06v-.03h-.04l-.203-.031-.193-.03h-.172l-.193.03-.193.03h-.05v.03l-.213.061-.173.092h-.04v.03h-.041v.03h-.05v.03h-.041v.062a.42.42 0 0 0-.213.223v.06s-.061.072-.091.163l-6.053 21.607c-.081.294-.021.557.192.8.223.244.518.386.903.457h.263c.355 0 .659-.081.933-.233s.436-.345.497-.578l1.126-4.066h7.046l1.176 4.066c.051.233.224.426.497.578.274.162.568.233.893.233h.263q.56-.09.923-.456c.223-.244.294-.507.213-.801l-6.084-21.607zm-12.999-.486c-.344.173-.568.416-.649.7l-4.481 15.858-4.482-15.858c-.081-.294-.314-.527-.679-.7a1.9 1.9 0 0 0-1.156-.172c-.406.06-.73.223-.953.486-.233.264-.304.538-.223.832l5.87 20.856c.061.254.234.457.518.63.294.172.608.253.953.253h.223c.344 0 .659-.081.953-.254.294-.162.487-.375.568-.629l5.87-20.856c.092-.284.021-.568-.223-.832-.233-.263-.568-.415-.993-.486a1.9 1.9 0 0 0-1.136.172m-28.096 17.46V20.787c0-1.187.446-2.079 1.349-2.687.719-.477 1.622-.72 2.697-.72q.35 0 1.064.091c.477.061.953.203 1.41.436.466.223.872.568 1.216 1.014q.517.67.517 1.855v12.857a3 3 0 0 1-.111.69 3.6 3.6 0 0 1-.365.861c-.173.305-.426.578-.74.832-.7.527-1.694.78-3.002.78s-2.23-.253-2.869-.75a2.13 2.13 0 0 1-.76-.872 4.1 4.1 0 0 1-.416-1.683v-.436zm9.308 4.471c.963-.75 1.582-1.693 1.876-2.849.091-.355.131-.659.131-.922V20.787a4.7 4.7 0 0 0-.243-1.562 6 6 0 0 0-.588-1.237 4.1 4.1 0 0 0-.781-.922 10 10 0 0 0-.872-.66c-.872-.537-1.754-.882-2.656-1.034q-1.354-.213-2.129-.213c-.872 0-1.724.112-2.566.325a7 7 0 0 0-2.261 1.034 5.8 5.8 0 0 0-1.632 1.764c-.416.71-.629 1.541-.629 2.505v12.228c-.04.101-.04.294-.04.567 0 .274.04.588.131.964.254 1.227.862 2.22 1.826 2.97 1.247 1.004 2.98 1.501 5.181 1.501s3.954-.497 5.262-1.5m-18.464.658.031-.03.04-.03.041-.03v-.031h.04v-.03l.051-.031v-.03l.041-.03v-.031l.04-.03v-.062l.041-.03v-.091l.04-.03V16.385c0-.294-.152-.547-.456-.77a1.75 1.75 0 0 0-1.064-.335q-.655 0-1.096.335c-.294.213-.425.476-.425.77v15.757l-9.744-16.162-.041-.061-.02-.03-.031-.031-.04-.03v-.03l-.041-.031v-.03h-.04v-.031h-.041l-.04-.03-.041-.061-.04-.03-.041-.031h-.041v-.03h-.04l-.041-.031-.04-.03h-.041l-.091-.03-.041-.031h-.091l-.04-.03-.092-.031h-.172l-.041-.03h-.131c-.173 0-.294.01-.355.03h-.041l-.172.03-.172.061h-.041l-.04.03h-.041l-.05.031h-.041l-.051.03-.04.03-.041.031h-.04l-.041.03-.02.031-.02.03-.041.03-.051.031-.04.03v.031l-.051.03v.031h-.041v.03l-.02.03-.02.031-.041.03v.061l-.05.03v.123h-.041v21.262c0 .294.152.547.456.77.304.213.659.325 1.065.325.436 0 .801-.112 1.084-.325.294-.223.436-.476.436-.77V21.73l9.754 16.131.041.05.041.041.04.092.041.03.05.03.041.061.04.03.041.031.051.03.04.031.041.03h.04l.041.03.04.031.082.03.091.031.101.03.112.031h.091l.132.03h.223q.213 0 .304-.03c.112 0 .233-.02.345-.06l.04-.031h.041v-.03h.051l.04-.031h.041l.04-.03.041-.03.04-.031h.041l.041-.03.04-.031.02-.03zm-22.053 0 .02-.03.041-.03.04-.03v-.031h.041v-.03l.04-.031v-.03l.041-.03v-.031l.041-.03v-.062l.05-.03v-.091l.041-.03V16.385c0-.294-.152-.547-.466-.77a1.75 1.75 0 0 0-1.065-.335q-.653 0-1.095.335c-.284.213-.436.476-.436.77v15.757L79.644 15.98l-.04-.061-.02-.03-.02-.031-.041-.03v-.03l-.04-.031v-.03h-.041v-.031H79.4l-.04-.03-.041-.061-.04-.03-.041-.031h-.04v-.03h-.041l-.04-.031-.041-.03h-.051l-.091-.03-.04-.031h-.092l-.04-.03-.092-.031h-.172l-.04-.03h-.133q-.256 0-.344.03h-.041l-.172.03-.183.061h-.04l-.051.03h-.04l-.041.031h-.04l-.041.03-.051.03-.05.031h-.041l-.04.03-.021.031-.02.03-.041.03-.05.031-.041.03v.031l-.04.03v.031h-.052v.03l-.02.03-.02.031-.04.03v.061l-.041.03v.123h-.04v21.262c0 .294.151.547.456.77.304.213.659.325 1.064.325.436 0 .801-.112 1.095-.325.294-.223.436-.476.436-.77V21.73L89.52 37.86l.04.05.041.041.04.092.041.03.04.03.041.061.041.03.04.031.051.03.04.031.041.03h.04l.041.03.041.031.081.03.091.031.102.03.111.031h.081l.132.03h.213q.213 0 .304-.03a1 1 0 0 0 .345-.06l.04-.031h.051v-.03h.04l.052-.031h.04l.05-.03.051-.03.041-.031h.04l.051-.03.04-.031.021-.03zm-23.137.143q.456-.335.456-.761v-21.08q0-.44-.456-.76a1.77 1.77 0 0 0-1.065-.335c-.426 0-.801.112-1.085.335-.294.223-.436.477-.436.76v21.08c0 .294.152.548.436.76.284.224.66.325 1.085.325.426 0 .76-.112 1.065-.325M185.062 15.616h-13.13c-.75.01-1.095.344-1.095.73 0 .405.355.75 1.095.76h5.546v20.897c0 .416.345.75 1.055.77.74-.02 1.095-.354 1.095-.77V17.106h5.424c.74-.01 1.095-.355 1.095-.76 0-.386-.355-.71-1.095-.73M221.422 17.076c.74-.02 1.085-.355 1.085-.74 0-.416-.355-.74-1.085-.76h-10.413c-.74.02-1.095.354-1.095.76v21.687c0 .386.355.72 1.095.74h10.413c.74-.02 1.085-.344 1.085-.74 0-.405-.355-.75-1.085-.76h-9.358v-9.338h6.955c.74-.02 1.095-.345 1.095-.76 0-.376-.355-.72-1.095-.73h-6.955v-9.36zM202.755 15.575c-.71.02-1.054.345-1.054.74v10.12h-9.653v-10.12c0-.395-.345-.72-1.055-.74-.75.02-1.095.355-1.095.74v21.708c0 .386.345.72 1.095.74.71-.02 1.055-.344 1.055-.74V27.925h9.653v10.098c0 .396.344.72 1.054.74.74-.02 1.095-.354 1.095-.74V16.315c0-.385-.355-.72-1.095-.74M259.738 15.453c-.74.02-1.105.355-1.105.76v17.400000000000002c0 .304-.04.608-.122.902-.071.325-.202.66-.395 1.014a3.4 3.4 0 0 1-.75.923c-.781.629-1.825.912-3.174.912s-2.312-.273-3.042-.872a3.5 3.5 0 0 1-.801-.993 3.6 3.6 0 0 1-.355-1.095 3 3 0 0 1-.101-.781c0-.132 0-.274.03-.375V16.194c0-.386-.344-.72-1.095-.74-.75.01-1.095.354-1.095.74v17.47c0 .304.041.648.122 1.084.091.406.243.862.487 1.349.253.497.628.953 1.135 1.359 1.095.932 2.677 1.43 4.725 1.43s3.671-.487 4.796-1.42c.507-.416.882-.862 1.136-1.328.243-.457.415-.883.527-1.268q.17-.623.172-1.034V16.224c0-.406-.355-.75-1.095-.76M279.073 37.263h-9.348v-9.338h6.945c.741-.02 1.096-.355 1.096-.76 0-.386-.355-.72-1.096-.73h-6.945v-9.35h9.348c.741-.02 1.096-.354 1.096-.74 0-.405-.355-.74-1.096-.76h-10.402c-.741.02-1.106.355-1.106.76v21.689c0 .385.355.72 1.106.74h10.402c.741-.02 1.096-.345 1.096-.74 0-.396-.355-.75-1.096-.76M239.145 40.386c.223.172.537.284.862.284.233 0 .446-.081.669-.183.284-.152.385-.324.385-.537a.9.9 0 0 0-.071-.345l-1.896-1.693-.274-.243.264-.244a4.2 4.2 0 0 0 .801-1.044 6.4 6.4 0 0 0 .507-1.288c.101-.416.142-.75.142-1.024l.041-13.262c0-1.805-.73-3.174-2.241-4.198-1.217-.79-2.687-1.206-4.421-1.206-.811 0-1.602.121-2.352.355a6.8 6.8 0 0 0-1.977.932c-1.4 1.014-2.079 2.363-2.089 4.127V33.41c0 .081-.01.233-.02.517v.142c0 .274.04.578.131.943.102.416.264.862.507 1.338.244.497.629.954 1.136 1.37 1.125.932 2.697 1.429 4.715 1.429 1.145 0 2.149-.152 2.991-.456l.182-.071 2.008 1.774zm-5.222-23.493c.517 0 1.034.071 1.572.203.517.132.983.335 1.419.629.426.294.791.69 1.055 1.176.284.517.415 1.156.415 1.896v12.806c0 .446-.03.831-.101 1.145a4.2 4.2 0 0 1-.405 1.025q-.259.517-.791.942c-.741.63-1.795.913-3.123.913s-2.312-.274-3.062-.882a2.76 2.76 0 0 1-.781-.974 5 5 0 0 1-.385-1.094 7.4 7.4 0 0 1-.092-1.258V20.797c0-.68.122-1.298.386-1.815a3.36 3.36 0 0 1 .983-1.197 4.5 4.5 0 0 1 1.349-.669 5 5 0 0 1 1.541-.223"/><path fill="#454041" d="M68.076 51.448h-1.704v13.1h1.704zM71.138 54.905c.466-.142.973-.253 1.51-.344a9 9 0 0 1 1.501-.142c.487 0 .943.07 1.338.202q.608.198 1.035.67c.284.314.507.74.659 1.277.162.538.233 1.197.233 1.998v5.992h-1.622v-5.86c0-.984-.132-1.704-.376-2.15-.253-.456-.73-.68-1.419-.68-.365 0-.77.061-1.227.193v8.507h-1.622v-9.642zM83.274 64.791q-1.02 0-1.703-.395a3.14 3.14 0 0 1-1.105-1.085c-.284-.456-.487-1.004-.609-1.633a11 11 0 0 1-.182-2.058c0-1.642.304-2.92.902-3.843.598-.922 1.5-1.389 2.718-1.389.364 0 .689.04.983.132.284.091.558.203.811.345l-.415 1.338a2.37 2.37 0 0 0-1.309-.375c-.679 0-1.176.314-1.5.933-.325.618-.477 1.572-.477 2.87 0 .537.03 1.044.092 1.5.06.456.172.852.334 1.176.152.325.365.588.629.77.253.193.588.285.993.285.274 0 .528-.041.75-.102.224-.07.427-.162.63-.274l.354 1.268a3.1 3.1 0 0 1-.8.375c-.335.111-.69.172-1.086.172M93.058 64.264a7.346 7.346 0 0 1-1.338.335c-.264.04-.517.08-.77.111-.264.03-.497.05-.71.05-.517 0-.994-.06-1.42-.182a2.6 2.6 0 0 1-1.095-.628c-.304-.305-.527-.71-.7-1.237-.162-.528-.243-1.177-.243-1.978v-6.103h1.623v6.053c0 .973.152 1.652.446 2.048.294.395.75.598 1.348.598q.305 0 .609-.03c.202-.02.415-.061.628-.122v-8.547h1.622v9.642zM97.6 54.692c.204-.101.406-.182.61-.233.212-.05.455-.08.75-.08q.927-.001 1.581.364c.436.243.801.588 1.085 1.044.274.447.477.994.608 1.623.132.639.203 1.348.203 2.15 0 1.753-.314 3.061-.933 3.933-.628.872-1.602 1.308-2.94 1.308a7 7 0 0 1-1.379-.142 6 6 0 0 1-1.207-.365V50.17l1.623-.284v4.817zm0 8.528a3.704 3.704 0 0 0 .963.132c.731 0 1.279-.295 1.633-.883.365-.588.538-1.561.538-2.92 0-.71-.041-1.298-.132-1.774-.091-.477-.213-.862-.395-1.156a1.66 1.66 0 0 0-.609-.629 1.8 1.8 0 0 0-.831-.192c-.416 0-.801.101-1.166.304v7.117M104.972 54.834a5.7 5.7 0 0 1 1.045-.334q.547-.122 1.186-.122c.882 0 1.602.274 2.149.821.558.548.832 1.4.832 2.566v6.58c-.456.122-.913.223-1.389.304a8 8 0 0 1-1.389.112c-.457 0-.883-.061-1.278-.173a2.7 2.7 0 0 1-1.044-.547 2.8 2.8 0 0 1-.71-.953c-.172-.386-.264-.852-.264-1.41 0-.517.081-.963.234-1.348.152-.385.375-.71.648-.963.284-.254.609-.457.984-.588a3.7 3.7 0 0 1 1.227-.203c.436 0 .872.05 1.379.152v-.903c0-.73-.142-1.236-.426-1.53s-.69-.437-1.217-.437c-.294 0-.557.03-.821.082-.264.06-.537.152-.831.273l-.335-1.379zm.781 6.824c0 .578.152 1.004.456 1.288.304.274.73.416 1.288.416.345 0 .71-.041 1.115-.132v-3.154a4.3 4.3 0 0 0-1.115-.152c-.243 0-.467.03-.679.081s-.406.152-.558.284a1.26 1.26 0 0 0-.365.528c-.091.223-.132.496-.132.841M114.533 54.621h2.495v1.4h-2.495v5.465q0 1.019.365 1.43c.244.273.578.405.994.405.213 0 .416-.03.619-.091a1.9 1.9 0 0 0 .496-.233l.325 1.307a3.2 3.2 0 0 1-1.643.457c-.933 0-1.632-.264-2.088-.781-.457-.527-.69-1.39-.69-2.596v-9.409l1.622-.284v2.95zM120.11 60.066c.01.477.05.913.131 1.318.071.396.193.74.365 1.045.173.294.396.527.68.69.284.161.649.242 1.085.242.365 0 .709-.05 1.013-.162a6 6 0 0 0 .67-.273l.304 1.308q-.243.167-.821.365a4.2 4.2 0 0 1-1.369.202c-.69 0-1.278-.121-1.744-.375a3.2 3.2 0 0 1-1.156-1.054c-.294-.457-.507-.994-.639-1.623a11 11 0 0 1-.192-2.078c0-1.825.304-3.164.912-4.005.608-.842 1.409-1.268 2.403-1.268 1.115 0 1.916.426 2.383 1.268.466.841.699 2.028.699 3.549v.425c0 .142 0 .294-.02.447h-4.704zm1.642-4.309c-.537 0-.943.274-1.176.811-.254.548-.396 1.268-.446 2.17h3.001c0-.923-.091-1.643-.284-2.18-.182-.537-.558-.801-1.095-.801M133.383 64.264q-.246.09-.599.182a7 7 0 0 1-.74.153c-.253.04-.517.08-.77.111-.264.03-.497.05-.71.05-.517 0-.994-.06-1.42-.182a2.6 2.6 0 0 1-1.095-.628c-.304-.305-.537-.71-.699-1.237s-.244-1.177-.244-1.978v-6.103h1.623v6.053c0 .973.152 1.652.446 2.048.294.395.75.598 1.348.598q.304 0 .609-.03c.203-.02.405-.061.618-.122v-8.547h1.623v9.642zM140.601 56.092a3.5 3.5 0 0 0-1.359-.264c-.466 0-.892.081-1.297.243v8.467h-1.623v-9.49a6.3 6.3 0 0 1 1.258-.447 6.3 6.3 0 0 1 1.561-.182c.304 0 .608.02.902.05q.457.06.852.213l-.284 1.4zM150.467 50.16l1.622-.284v14.408a6 6 0 0 1-1.217.365 7 7 0 0 1-1.379.142q-2.05 0-2.96-1.308c-.619-.872-.913-2.18-.913-3.934 0-.79.061-1.51.193-2.15a5 5 0 0 1 .618-1.622c.284-.446.649-.79 1.085-1.044.446-.243.963-.365 1.572-.365.294 0 .537.03.75.081.213.06.416.132.619.233V50.14zm0 5.952a2.4 2.4 0 0 0-1.176-.304c-.315 0-.599.06-.832.192-.243.122-.446.335-.608.629-.173.294-.304.67-.386 1.156-.091.476-.131 1.075-.131 1.774q0 2.038.547 2.92c.355.589.903.883 1.633.883q.213 0 .456-.03c.162-.021.334-.052.517-.102v-7.108zM156.682 50.373c.01.102.021.193.021.264v.263c0 .72-.112 1.41-.335 2.059a9 9 0 0 1-.933 1.906l-1.156-.345c.315-.568.528-1.136.619-1.724a9.6 9.6 0 0 0 .152-1.642v-.406c0-.132-.02-.263-.031-.385h1.663zM160.049 52.867c-.294 0-.538-.101-.741-.294-.212-.192-.314-.456-.314-.78q-.002-.49.314-.781c.203-.193.457-.294.741-.294s.537.101.75.294.314.456.314.78c0 .325-.101.589-.314.781a1.08 1.08 0 0 1-.75.294m.811 11.68h-1.623v-9.926h1.623zM163.811 54.905c.466-.142.973-.253 1.51-.344a9 9 0 0 1 1.491-.142c.486 0 .943.07 1.338.202.406.132.74.355 1.034.67.284.314.507.74.659 1.277.153.538.234 1.197.234 1.998v5.992h-1.623v-5.86c0-.984-.121-1.704-.375-2.15-.253-.456-.73-.68-1.419-.68-.365 0-.771.061-1.227.193v8.507h-1.622v-9.661999999999999M172.926 54.905c.466-.142.973-.253 1.511-.344a9 9 0 0 1 1.5-.142c.487 0 .933.07 1.339.202q.608.198 1.034.67c.273.314.507.74.659 1.277.162.538.233 1.197.233 1.998v5.992h-1.622v-5.86c0-.984-.122-1.704-.375-2.15-.254-.456-.73-.68-1.42-.68-.365 0-.771.061-1.227.193v8.507h-1.622v-9.642zM188.408 59.59q0 1.17-.213 2.129a5.4 5.4 0 0 1-.629 1.632 3 3 0 0 1-1.085 1.055c-.436.253-.942.375-1.541.375-.598 0-1.105-.122-1.551-.375a3.2 3.2 0 0 1-1.085-1.055 5 5 0 0 1-.629-1.632c-.142-.639-.202-1.349-.202-2.13s.071-1.47.202-2.118c.142-.64.355-1.197.629-1.653a3.1 3.1 0 0 1 1.085-1.065c.446-.253.963-.375 1.551-.375s1.105.122 1.541.375c.436.254.791.609 1.085 1.065.284.456.497 1.014.629 1.653a9.8 9.8 0 0 1 .213 2.119m-1.703 0a10 10 0 0 0-.102-1.521 4.6 4.6 0 0 0-.304-1.187q-.213-.499-.548-.77a1.24 1.24 0 0 0-.811-.274c-.314 0-.598.091-.821.274-.223.182-.406.446-.548.77a5 5 0 0 0-.314 1.187q-.091.684-.091 1.52 0 .837.091 1.522c.061.466.173.851.314 1.186.153.324.335.588.548.77q.335.274.821.274c.325 0 .588-.091.811-.273s.416-.436.548-.771a4.8 4.8 0 0 0 .304-1.186c.061-.457.102-.964.102-1.521M192.992 62.642q.228-.758.486-1.775a92.893 92.893 0 0 0 .953-4.269 82 82 0 0 0 .365-1.966h1.633a60 60 0 0 1-.578 2.626 94 94 0 0 1-.69 2.717 62 62 0 0 1-.709 2.525c-.234.79-.457 1.48-.659 2.058h-1.673a58 58 0 0 1-.67-2.058 84 84 0 0 1-.709-2.525c-.234-.892-.457-1.795-.68-2.717a62 62 0 0 1-.578-2.626h1.714a82 82 0 0 0 .365 1.967c.152.72.294 1.44.456 2.16s.315 1.429.477 2.108c.162.68.324 1.278.476 1.775M198.172 54.834a5.7 5.7 0 0 1 1.045-.334q.547-.122 1.186-.122c.882 0 1.602.274 2.15.821.557.548.831 1.4.831 2.566v6.58c-.456.122-.913.223-1.389.304a8 8 0 0 1-1.389.112c-.456 0-.882-.061-1.278-.173a2.7 2.7 0 0 1-1.044-.547 2.7 2.7 0 0 1-.71-.953c-.172-.386-.263-.852-.263-1.41 0-.517.081-.963.233-1.348s.375-.71.649-.963c.284-.254.608-.457.983-.588a3.7 3.7 0 0 1 1.227-.203c.436 0 .872.05 1.379.152v-.903c0-.73-.142-1.236-.426-1.53s-.689-.437-1.217-.437c-.294 0-.557.03-.821.082-.253.06-.537.152-.821.273l-.335-1.379zm.781 6.824c0 .578.152 1.004.456 1.288.305.274.73.416 1.288.416.345 0 .71-.041 1.115-.132v-3.154a4.3 4.3 0 0 0-1.115-.152c-.233 0-.466.03-.679.081-.213.061-.406.152-.558.284a1.36 1.36 0 0 0-.365.528c-.091.223-.132.496-.132.841M207.734 54.621h2.494v1.4h-2.494v5.465q0 1.019.365 1.43c.243.273.578.405.993.405q.32 0 .609-.091c.202-.061.365-.142.507-.233l.324 1.307a3.2 3.2 0 0 1-1.643.457c-.932 0-1.632-.264-2.088-.781-.456-.527-.69-1.39-.69-2.596v-9.409l1.623-.284v2.95zM213.108 52.867c-.294 0-.538-.101-.751-.294-.203-.192-.314-.456-.314-.78 0-.325.101-.588.314-.781s.457-.294.751-.294.537.101.75.294c.203.193.314.456.314.78 0 .325-.101.589-.314.781a1.08 1.08 0 0 1-.75.294m.811 11.68h-1.623v-9.926h1.623zM223.237 59.59c0 .78-.071 1.49-.203 2.129-.142.639-.345 1.176-.629 1.632-.284.457-.639.811-1.085 1.055-.436.253-.943.375-1.541.375s-1.115-.122-1.551-.375a3.2 3.2 0 0 1-1.085-1.055 5 5 0 0 1-.629-1.632 10.5 10.5 0 0 1-.202-2.13c0-.78.07-1.47.202-2.118.142-.64.355-1.197.629-1.653a3.03 3.03 0 0 1 1.085-1.065c.446-.253.963-.375 1.551-.375s1.105.122 1.541.375c.436.254.791.609 1.085 1.065.284.456.497 1.014.629 1.653.132.638.203 1.348.203 2.119m-1.704 0q0-.837-.091-1.521a4.6 4.6 0 0 0-.304-1.187q-.198-.499-.548-.77a1.25 1.25 0 0 0-.811-.274c-.334 0-.608.091-.831.274-.223.182-.396.446-.548.77-.142.335-.243.73-.314 1.187q-.091.684-.091 1.52 0 .837.091 1.522c.061.466.172.851.314 1.186.152.324.325.588.548.77s.497.274.831.274c.314 0 .588-.091.811-.273.234-.183.416-.436.548-.771q.213-.487.304-1.186c.071-.457.091-.964.091-1.521M225.619 54.905a12 12 0 0 1 1.511-.344 9 9 0 0 1 1.501-.142c.486 0 .942.07 1.338.202q.608.198 1.034.67c.284.314.497.74.659 1.277.162.538.233 1.197.233 1.998v5.992h-1.622v-5.86c0-.984-.122-1.704-.375-2.15-.254-.456-.73-.68-1.42-.68-.365 0-.77.061-1.226.193v8.507h-1.623v-9.642z"/></svg>